<mxfile host="app.diagrams.net" modified="2021-03-04T15:38:18.363Z" agent="5.0 (Windows NT 10.0; Win64; x64) AppleWebKit/537.36 (KHTML, like Gecko) Chrome/88.0.4324.190 Safari/537.36" etag="zqQur_lZ_D6nPsruBqni" version="14.4.4" type="github">
  <diagram id="soXnBCgZx24ZNJJZUYAm" name="Page-1">
    <mxGraphModel dx="1662" dy="804" grid="1" gridSize="10" guides="1" tooltips="1" connect="1" arrows="1" fold="1" page="1" pageScale="1" pageWidth="827" pageHeight="1169" math="0" shadow="0">
      <root>
        <mxCell id="0" />
        <mxCell id="1" parent="0" />
        <mxCell id="wIiQLc5AUW_qyTt2X6kA-1" value="hours &amp;gt; 1" style="rounded=0;orthogonalLoop=1;jettySize=auto;html=1;" edge="1" parent="1" source="wIiQLc5AUW_qyTt2X6kA-4" target="wIiQLc5AUW_qyTt2X6kA-6">
          <mxGeometry relative="1" as="geometry" />
        </mxCell>
        <mxCell id="wIiQLc5AUW_qyTt2X6kA-2" value="hours &amp;gt; 0" style="edgeStyle=none;rounded=0;orthogonalLoop=1;jettySize=auto;html=1;" edge="1" parent="1" source="wIiQLc5AUW_qyTt2X6kA-4" target="wIiQLc5AUW_qyTt2X6kA-8">
          <mxGeometry relative="1" as="geometry" />
        </mxCell>
        <mxCell id="wIiQLc5AUW_qyTt2X6kA-3" value="hours &amp;lt;= 0" style="edgeStyle=none;rounded=0;orthogonalLoop=1;jettySize=auto;html=1;" edge="1" parent="1" source="wIiQLc5AUW_qyTt2X6kA-4" target="wIiQLc5AUW_qyTt2X6kA-10">
          <mxGeometry relative="1" as="geometry" />
        </mxCell>
        <mxCell id="wIiQLc5AUW_qyTt2X6kA-4" value="1" style="ellipse;whiteSpace=wrap;html=1;aspect=fixed;" vertex="1" parent="1">
          <mxGeometry x="380" y="100" width="80" height="80" as="geometry" />
        </mxCell>
        <mxCell id="wIiQLc5AUW_qyTt2X6kA-5" value="hourString =&lt;br&gt;hours + &quot;hours&quot;" style="edgeStyle=none;rounded=0;orthogonalLoop=1;jettySize=auto;html=1;" edge="1" parent="1" source="wIiQLc5AUW_qyTt2X6kA-6" target="wIiQLc5AUW_qyTt2X6kA-16">
          <mxGeometry relative="1" as="geometry" />
        </mxCell>
        <mxCell id="wIiQLc5AUW_qyTt2X6kA-6" value="2" style="ellipse;whiteSpace=wrap;html=1;aspect=fixed;" vertex="1" parent="1">
          <mxGeometry x="220" y="260" width="80" height="80" as="geometry" />
        </mxCell>
        <mxCell id="wIiQLc5AUW_qyTt2X6kA-7" value="hourString =&lt;br&gt;hours + &quot;hour&quot;" style="edgeStyle=none;rounded=0;orthogonalLoop=1;jettySize=auto;html=1;" edge="1" parent="1" source="wIiQLc5AUW_qyTt2X6kA-8" target="wIiQLc5AUW_qyTt2X6kA-16">
          <mxGeometry relative="1" as="geometry" />
        </mxCell>
        <mxCell id="wIiQLc5AUW_qyTt2X6kA-8" value="3" style="ellipse;whiteSpace=wrap;html=1;aspect=fixed;" vertex="1" parent="1">
          <mxGeometry x="380" y="260" width="80" height="80" as="geometry" />
        </mxCell>
        <mxCell id="wIiQLc5AUW_qyTt2X6kA-9" value="hourString =&lt;br&gt;&quot;&quot;" style="edgeStyle=none;rounded=0;orthogonalLoop=1;jettySize=auto;html=1;" edge="1" parent="1" source="wIiQLc5AUW_qyTt2X6kA-10" target="wIiQLc5AUW_qyTt2X6kA-16">
          <mxGeometry relative="1" as="geometry" />
        </mxCell>
        <mxCell id="wIiQLc5AUW_qyTt2X6kA-10" value="4" style="ellipse;whiteSpace=wrap;html=1;aspect=fixed;" vertex="1" parent="1">
          <mxGeometry x="540" y="260" width="80" height="80" as="geometry" />
        </mxCell>
        <mxCell id="wIiQLc5AUW_qyTt2X6kA-11" value="&lt;b&gt;int &lt;/b&gt;mins&lt;br&gt;&lt;span style=&quot;font-size: 12px ; background-color: rgb(248 , 249 , 250)&quot;&gt;hours = min / 60&lt;/span&gt;&lt;br style=&quot;font-size: 12px ; background-color: rgb(248 , 249 , 250)&quot;&gt;&lt;span style=&quot;font-size: 12px ; background-color: rgb(248 , 249 , 250)&quot;&gt;minsPast = mins % 60&lt;br&gt;&lt;/span&gt;minutesString = null&lt;br&gt;hoursString = null" style="endArrow=classic;html=1;entryX=0.5;entryY=0;entryDx=0;entryDy=0;" edge="1" parent="1" target="wIiQLc5AUW_qyTt2X6kA-4">
          <mxGeometry x="-0.1111" width="50" height="50" relative="1" as="geometry">
            <mxPoint x="420" y="10" as="sourcePoint" />
            <mxPoint x="340" y="80" as="targetPoint" />
            <mxPoint as="offset" />
          </mxGeometry>
        </mxCell>
        <mxCell id="wIiQLc5AUW_qyTt2X6kA-12" value="hours &amp;gt;= 1" style="edgeStyle=none;rounded=0;orthogonalLoop=1;jettySize=auto;html=1;" edge="1" parent="1" source="wIiQLc5AUW_qyTt2X6kA-16" target="wIiQLc5AUW_qyTt2X6kA-22">
          <mxGeometry relative="1" as="geometry" />
        </mxCell>
        <mxCell id="wIiQLc5AUW_qyTt2X6kA-13" value="minsPast &amp;lt;= 0&lt;br&gt;||&lt;br&gt;hours &amp;lt; 1" style="edgeStyle=orthogonalEdgeStyle;rounded=0;orthogonalLoop=1;jettySize=auto;html=1;" edge="1" parent="1" source="wIiQLc5AUW_qyTt2X6kA-16" target="wIiQLc5AUW_qyTt2X6kA-24">
          <mxGeometry relative="1" as="geometry" />
        </mxCell>
        <mxCell id="wIiQLc5AUW_qyTt2X6kA-14" value="minsPast &amp;gt; 1" style="edgeStyle=orthogonalEdgeStyle;rounded=0;orthogonalLoop=1;jettySize=auto;html=1;" edge="1" parent="1" source="wIiQLc5AUW_qyTt2X6kA-16" target="wIiQLc5AUW_qyTt2X6kA-20">
          <mxGeometry relative="1" as="geometry" />
        </mxCell>
        <mxCell id="wIiQLc5AUW_qyTt2X6kA-15" value="minsPast &amp;gt; 0" style="edgeStyle=none;rounded=0;orthogonalLoop=1;jettySize=auto;html=1;" edge="1" parent="1" source="wIiQLc5AUW_qyTt2X6kA-16" target="wIiQLc5AUW_qyTt2X6kA-18">
          <mxGeometry relative="1" as="geometry" />
        </mxCell>
        <mxCell id="wIiQLc5AUW_qyTt2X6kA-16" value="5" style="ellipse;whiteSpace=wrap;html=1;aspect=fixed;" vertex="1" parent="1">
          <mxGeometry x="380" y="420" width="80" height="80" as="geometry" />
        </mxCell>
        <mxCell id="wIiQLc5AUW_qyTt2X6kA-17" value="minuteString =&lt;br&gt;minsPast + &quot;Minute&quot;" style="edgeStyle=none;rounded=0;orthogonalLoop=1;jettySize=auto;html=1;" edge="1" parent="1" source="wIiQLc5AUW_qyTt2X6kA-18" target="wIiQLc5AUW_qyTt2X6kA-27">
          <mxGeometry relative="1" as="geometry" />
        </mxCell>
        <mxCell id="wIiQLc5AUW_qyTt2X6kA-18" value="7" style="ellipse;whiteSpace=wrap;html=1;aspect=fixed;" vertex="1" parent="1">
          <mxGeometry x="260" y="580" width="80" height="80" as="geometry" />
        </mxCell>
        <mxCell id="wIiQLc5AUW_qyTt2X6kA-19" value="minuteString =&lt;br&gt;minsPast + &quot;Minutes&quot;" style="edgeStyle=orthogonalEdgeStyle;rounded=0;orthogonalLoop=1;jettySize=auto;html=1;" edge="1" parent="1" source="wIiQLc5AUW_qyTt2X6kA-20" target="wIiQLc5AUW_qyTt2X6kA-27">
          <mxGeometry relative="1" as="geometry">
            <Array as="points">
              <mxPoint x="180" y="780" />
            </Array>
          </mxGeometry>
        </mxCell>
        <mxCell id="wIiQLc5AUW_qyTt2X6kA-20" value="6" style="ellipse;whiteSpace=wrap;html=1;aspect=fixed;" vertex="1" parent="1">
          <mxGeometry x="140" y="580" width="80" height="80" as="geometry" />
        </mxCell>
        <mxCell id="wIiQLc5AUW_qyTt2X6kA-21" value="minuteString =&lt;br&gt;&quot;&quot;" style="edgeStyle=none;rounded=0;orthogonalLoop=1;jettySize=auto;html=1;" edge="1" parent="1" source="wIiQLc5AUW_qyTt2X6kA-22" target="wIiQLc5AUW_qyTt2X6kA-27">
          <mxGeometry relative="1" as="geometry" />
        </mxCell>
        <mxCell id="wIiQLc5AUW_qyTt2X6kA-22" value="8" style="ellipse;whiteSpace=wrap;html=1;aspect=fixed;" vertex="1" parent="1">
          <mxGeometry x="500" y="580" width="80" height="80" as="geometry" />
        </mxCell>
        <mxCell id="wIiQLc5AUW_qyTt2X6kA-23" value="minuteString =&lt;br&gt;minsPast + &quot;Minutes&quot;" style="edgeStyle=orthogonalEdgeStyle;rounded=0;orthogonalLoop=1;jettySize=auto;html=1;" edge="1" parent="1" source="wIiQLc5AUW_qyTt2X6kA-24" target="wIiQLc5AUW_qyTt2X6kA-27">
          <mxGeometry relative="1" as="geometry">
            <Array as="points">
              <mxPoint x="660" y="780" />
            </Array>
          </mxGeometry>
        </mxCell>
        <mxCell id="wIiQLc5AUW_qyTt2X6kA-24" value="9" style="ellipse;whiteSpace=wrap;html=1;aspect=fixed;" vertex="1" parent="1">
          <mxGeometry x="620" y="580" width="80" height="80" as="geometry" />
        </mxCell>
        <mxCell id="wIiQLc5AUW_qyTt2X6kA-25" value="!hoursString.equals(&quot;&quot;)&lt;br&gt;&amp;amp;&amp;amp;&lt;br&gt;!minutesString.equals(&quot;&quot;)" style="rounded=0;orthogonalLoop=1;jettySize=auto;html=1;" edge="1" parent="1" source="wIiQLc5AUW_qyTt2X6kA-27" target="wIiQLc5AUW_qyTt2X6kA-29">
          <mxGeometry relative="1" as="geometry" />
        </mxCell>
        <mxCell id="wIiQLc5AUW_qyTt2X6kA-26" style="edgeStyle=none;rounded=0;orthogonalLoop=1;jettySize=auto;html=1;" edge="1" parent="1" source="wIiQLc5AUW_qyTt2X6kA-27" target="wIiQLc5AUW_qyTt2X6kA-30">
          <mxGeometry relative="1" as="geometry" />
        </mxCell>
        <mxCell id="wIiQLc5AUW_qyTt2X6kA-27" value="10" style="ellipse;whiteSpace=wrap;html=1;aspect=fixed;" vertex="1" parent="1">
          <mxGeometry x="380" y="740" width="80" height="80" as="geometry" />
        </mxCell>
        <mxCell id="wIiQLc5AUW_qyTt2X6kA-28" value="minutesString =&lt;br&gt;&quot; &quot; + minutesString" style="edgeStyle=none;rounded=0;orthogonalLoop=1;jettySize=auto;html=1;" edge="1" parent="1" source="wIiQLc5AUW_qyTt2X6kA-29" target="wIiQLc5AUW_qyTt2X6kA-30">
          <mxGeometry relative="1" as="geometry" />
        </mxCell>
        <mxCell id="wIiQLc5AUW_qyTt2X6kA-29" value="11" style="ellipse;whiteSpace=wrap;html=1;aspect=fixed;" vertex="1" parent="1">
          <mxGeometry x="220" y="900" width="80" height="80" as="geometry" />
        </mxCell>
        <mxCell id="wIiQLc5AUW_qyTt2X6kA-30" value="12" style="ellipse;whiteSpace=wrap;html=1;aspect=fixed;" vertex="1" parent="1">
          <mxGeometry x="380" y="1060" width="80" height="80" as="geometry" />
        </mxCell>
        <mxCell id="wIiQLc5AUW_qyTt2X6kA-31" value="return hoursString + minutesString" style="text;html=1;strokeColor=none;fillColor=none;align=center;verticalAlign=middle;whiteSpace=wrap;rounded=0;" vertex="1" parent="1">
          <mxGeometry x="460" y="1090" width="200" height="20" as="geometry" />
        </mxCell>
      </root>
    </mxGraphModel>
  </diagram>
</mxfile>
